<svg xmlns="http://www.w3.org/2000/svg" viewBox="0 0 24 24"><path d="M10.584 17.21l-.88-2.392s-1.43 1.594-3.573 1.594c-1.897 0-3.244-1.649-3.244-4.288 0-3.382 1.704-4.591 3.381-4.591 2.42 0 3.189 1.567 3.849 3.574l.88 2.749c.88 2.666 2.529 4.81 7.285 4.81 3.409 0 5.718-1.044 5.718-3.793 0-2.227-1.265-3.381-3.629-3.931l-1.758-.385c-1.21-.275-1.567-.769-1.567-1.594 0-.935.742-1.484 1.952-1.484 1.32 0 2.034.495 2.144 1.677l2.749-.33c-.22-2.474-1.924-3.492-4.729-3.492-2.474 0-4.893.935-4.893 3.931 0 1.87.907 3.052 3.189 3.601l1.87.44c1.402.33 1.869.907 1.869 1.704 0 1.017-.99 1.43-2.86 1.43-2.776 0-3.93-1.456-4.59-3.464l-.907-2.748C12.708 6.522 10.969 5 7.668 5 3.024 5 0 7.998 0 12.561 0 16.95 2.227 19.341 6.296 19.341c3.27 0 4.288-2.131 4.288-2.131z"/></svg>
